<svg width="21" height="13" viewBox="0 0 21 13" fill="none" xmlns="http://www.w3.org/2000/svg">
<path d="M19.579 1.41342C19.719 0.948422 19.579 0.607422 18.917 0.607422H16.724C16.166 0.607422 15.911 0.902422 15.771 1.22642C15.771 1.22642 14.656 3.94542 13.076 5.70842C12.566 6.22142 12.333 6.38342 12.055 6.38342C11.916 6.38342 11.714 6.22142 11.714 5.75642V1.41342C11.714 0.855422 11.553 0.607422 11.088 0.607422H7.642C7.294 0.607422 7.084 0.865422 7.084 1.11142C7.084 1.63942 7.874 1.76142 7.955 3.24942V6.47742C7.955 7.18442 7.828 7.31342 7.548 7.31342C6.805 7.31342 4.997 4.58442 3.924 1.46042C3.715 0.853422 3.504 0.608422 2.944 0.608422H0.752C0.125 0.608422 0 0.903422 0 1.22742C0 1.80942 0.743 4.68942 3.461 8.49842C5.273 11.0994 7.824 12.5094 10.148 12.5094C11.541 12.5094 11.713 12.1964 11.713 11.6564V9.69042C11.713 9.06442 11.846 8.93842 12.287 8.93842C12.611 8.93842 13.169 9.10242 14.47 10.3554C15.956 11.8414 16.202 12.5084 17.037 12.5084H19.229C19.855 12.5084 20.168 12.1954 19.988 11.5774C19.791 10.9624 19.081 10.0674 18.139 9.00842C17.627 8.40442 16.862 7.75442 16.629 7.42942C16.304 7.01042 16.398 6.82542 16.629 6.45342C16.63 6.45442 19.301 2.69242 19.579 1.41342Z" fill="white"/>
</svg>
